<svg width="11" height="11" viewBox="0 0 11 11" fill="none" xmlns="http://www.w3.org/2000/svg">
<path d="M4.48438 0.00585938C6.73823 0.119893 8.53027 1.98344 8.53027 4.26562L8.52539 4.48438C8.48607 5.26175 8.23793 5.98376 7.83691 6.59668L10.7188 9.47656L10.3652 9.83008L10.0117 10.1846L7.19238 7.36621C6.42847 8.08732 5.39903 8.53019 4.26562 8.53027L4.0459 8.52539C1.86475 8.41488 0.116216 6.66556 0.00585938 4.48438L0 4.26562C0 1.90996 1.90996 0 4.26562 0L4.48438 0.00585938ZM4.26562 1C2.46224 1 1 2.46224 1 4.26562C1.00017 6.06886 2.46235 7.53027 4.26562 7.53027C6.06875 7.5301 7.5301 6.06875 7.53027 4.26562C7.53027 2.46235 6.06886 1.00017 4.26562 1Z" fill="#808080"/>
</svg>
