<svg width="152" height="20" viewBox="0 0 152 20" fill="none" xmlns="http://www.w3.org/2000/svg">
<path fill-rule="evenodd" clip-rule="evenodd" d="M12.0709 13.6011C12.3173 13.4445 12.5078 13.2545 12.6422 13.0308L16.8428 5.7855C16.9212 5.64015 16.9605 5.50598 16.9605 5.38299C16.9605 5.11464 16.8092 4.98047 16.5068 4.98047H5.59525C5.33761 4.98047 5.09118 5.05874 4.85594 5.21527C4.6207 5.37181 4.07182 5.7916 3.9486 6.01522L3.47813 6.82026C3.39972 6.96561 3.36051 7.09979 3.36051 7.22278C3.36051 7.49112 3.51174 7.6253 3.81418 7.6253H7.8468C8.12684 7.6253 8.36207 7.54144 8.5525 7.37372C8.75413 7.20601 8.94456 7.02152 9.12379 6.82026C9.24217 6.68733 9.52426 6.4615 9.75703 6.27515C9.87667 6.17937 9.98328 6.09402 10.0479 6.03708C10.2496 5.86936 10.4904 5.7855 10.7704 5.7855C11.0729 5.7855 11.2241 5.91968 11.2241 6.18802C11.2241 6.31101 11.1849 6.44519 11.1065 6.59054L10.636 7.39558C10.4792 7.66392 10.2063 8.01705 10.0098 8.21331C9.79093 8.43198 9.56984 8.45295 9.36488 8.4724C9.29439 8.47908 9.2258 8.48559 9.15986 8.4999C6.72909 8.5558 6.51066 8.61171 6.32023 8.66761C6.141 8.72352 6.05139 8.83533 6.05139 9.00305C6.05139 9.11486 6.1074 9.18753 6.21942 9.22108C6.33143 9.24344 6.45465 9.2658 6.58907 9.28816C6.60329 9.28935 6.61739 9.29078 6.63395 9.29246C6.7739 9.30669 7.08969 9.3388 9.14306 9.38879C9.15618 9.39403 9.16807 9.39864 9.17884 9.40282C9.26002 9.43428 9.27748 9.44105 9.27748 9.5064C9.27748 9.61821 9.23268 9.75239 9.14306 9.90892L7.8468 12.2258C7.71238 12.4494 7.52195 12.6395 7.27551 12.796C7.02907 12.9526 6.79383 13.0308 6.5698 13.0308C6.26735 13.0308 6.11613 12.8967 6.11613 12.6283C6.11613 12.5053 6.15534 12.3712 6.23375 12.2258L7.00667 10.8792C7.08508 10.7339 7.12428 10.5997 7.12428 10.4767C7.12428 10.2084 6.96746 10.0742 6.65381 10.0742H2.6212C2.36356 10.0742 2.11712 10.1525 1.88189 10.309C1.65785 10.4655 1.48423 10.6556 1.36101 10.8792L0.117618 13.0308C0.039206 13.1762 0 13.3104 0 13.4334C0 13.7017 0.156824 13.8359 0.470472 13.8359H11.382C11.5948 13.8359 11.8245 13.7576 12.0709 13.6011ZM118.908 4.98047H124.322C124.55 4.98047 124.625 5.28461 124.424 5.39009L117.745 8.88977C117.544 8.99525 117.619 9.29939 117.846 9.29939H121.457C121.67 9.29939 121.756 9.57245 121.582 9.69444L115.687 13.827C115.651 13.8527 115.607 13.8665 115.562 13.8665H113.6C113.558 13.8665 113.52 13.8552 113.488 13.8359L111.514 13.8361C111.201 13.8361 111.044 13.702 111.044 13.4336C111.044 13.3106 111.083 13.1764 111.162 13.0311L112.539 10.6328C112.618 10.4874 112.657 10.3532 112.657 10.2302C112.657 9.96189 112.506 9.82772 112.203 9.82772C111.979 9.82772 111.738 9.90599 111.481 10.0625C111.234 10.2191 111.05 10.4091 110.926 10.6328L109.548 13.0311C109.425 13.2547 109.235 13.4448 108.977 13.6013C108.731 13.7579 108.501 13.8361 108.288 13.8361H104.256C103.942 13.8361 103.785 13.702 103.785 13.4336C103.785 13.3106 103.824 13.1764 103.903 13.0311L108.12 5.78576C108.243 5.56214 108.423 5.37206 108.658 5.21553C108.893 5.05899 109.14 4.98073 109.397 4.98073H113.43C113.732 4.98073 113.884 5.1149 113.884 5.38324C113.884 5.50624 113.844 5.64041 113.766 5.78576L112.354 8.20087C112.276 8.34623 112.237 8.4804 112.237 8.60339C112.237 8.87174 112.388 9.00591 112.691 9.00591C112.915 9.00591 113.15 8.92764 113.396 8.77111C113.643 8.61457 113.833 8.42449 113.968 8.20087L115.379 5.78576C115.502 5.56214 115.681 5.37206 115.917 5.21553C116.152 5.05899 116.398 4.98073 116.656 4.98073L117.976 4.98058C117.979 4.9805 117.981 4.98047 117.983 4.98047H118.908ZM20.8901 13.4502C20.8901 13.7073 21.0469 13.8359 21.3606 13.8359H25.3932C25.5836 13.8359 25.802 13.7688 26.0485 13.6347C26.3061 13.5005 26.5134 13.2992 26.6702 13.0309L30.854 5.78556C30.9436 5.62903 30.9884 5.49486 30.9884 5.38305C30.9884 5.1147 30.8316 4.98053 30.518 4.98053H24.8723C24.3234 4.98053 23.7521 5.15383 23.1584 5.50045L16.555 9.29083C16.2862 9.44736 16.0174 9.6598 15.7485 9.92815C15.4797 10.1853 15.2836 10.4145 15.1604 10.6158L13.7658 13.0309C13.6762 13.1874 13.6314 13.3272 13.6314 13.4502C13.6314 13.7073 13.7882 13.8359 14.1019 13.8359H18.1345C18.3249 13.8359 18.5433 13.7688 18.7898 13.6347C19.0474 13.5005 19.2546 13.2992 19.4115 13.0309L23.1248 6.5906C23.2817 6.33344 23.4777 6.13777 23.7129 6.00359C23.9482 5.85824 24.1778 5.78556 24.4018 5.78556C24.7155 5.78556 24.8723 5.91974 24.8723 6.18808C24.8723 6.29989 24.8275 6.43407 24.7379 6.5906L21.0245 13.0309C20.9349 13.1874 20.8901 13.3272 20.8901 13.4502ZM35.9197 9.81075C35.662 9.81075 35.4156 9.88901 35.1804 10.0455C34.9563 10.2021 34.7827 10.3922 34.6595 10.6158L33.7185 12.2259C33.6401 12.3712 33.6009 12.5054 33.6009 12.6284C33.6009 12.8967 33.7521 13.0309 34.0546 13.0309C34.2786 13.0309 34.5139 12.9526 34.7603 12.7961C35.0067 12.6396 35.1972 12.4495 35.3316 12.2259L35.8021 11.4208C35.9253 11.1972 36.1045 11.0071 36.3397 10.8506C36.575 10.6941 36.8214 10.6158 37.079 10.6158H41.1117C41.4141 10.6158 41.5653 10.75 41.5653 11.0183C41.5653 11.1413 41.5261 11.2755 41.4477 11.4208L40.5068 13.0309C40.3723 13.2545 40.1819 13.4446 39.9355 13.6011C39.689 13.7577 39.4594 13.8359 39.2466 13.8359H27.9553C27.6416 13.8359 27.4848 13.7018 27.4848 13.4334C27.4848 13.3104 27.524 13.1762 27.6024 13.0309L31.803 5.78556C31.9263 5.56194 32.1111 5.37187 32.3575 5.21533C32.6152 5.0588 32.856 4.98053 33.08 4.98053H44.3714C44.6738 4.98053 44.825 5.1147 44.825 5.38305C44.825 5.50604 44.7858 5.64021 44.7074 5.78556L42.8423 9.00571C42.7079 9.22933 42.5175 9.41941 42.271 9.57594C42.0246 9.73248 41.7894 9.81075 41.5653 9.81075H35.9197ZM36.0541 8.20067C35.9645 8.35721 35.9197 8.49138 35.9197 8.60319C35.9197 8.87154 36.0765 9.00571 36.3901 9.00571C36.6142 9.00571 36.8494 8.92744 37.0959 8.77091C37.3423 8.61437 37.5327 8.42429 37.6671 8.20067L38.5913 6.5906C38.6697 6.44525 38.7089 6.31107 38.7089 6.18808C38.7089 5.91974 38.5577 5.78556 38.2552 5.78556C38.0312 5.78556 37.7904 5.86383 37.5327 6.02037C37.2863 6.1769 37.1015 6.36698 36.9782 6.5906L36.0541 8.20067ZM46.1738 5.21533C45.9274 5.37187 45.7426 5.56194 45.6194 5.78556L41.4187 13.0309C41.3403 13.1762 41.3011 13.3104 41.3011 13.4334C41.3011 13.7018 41.4579 13.8359 41.7716 13.8359H45.8042C46.017 13.8359 46.2466 13.7577 46.4931 13.6011C46.7395 13.4446 46.93 13.2545 47.0644 13.0309L48.5262 10.5152C48.6382 10.3251 48.8174 10.163 49.0639 10.0288C49.3103 9.88342 49.5343 9.81075 49.736 9.81075C50.0384 9.81075 50.1896 9.94492 50.1896 10.2133C50.1896 10.3363 50.1504 10.4704 50.072 10.6158L48.6774 13.0309C48.5878 13.1874 48.543 13.3216 48.543 13.4334C48.543 13.7018 48.6998 13.8359 49.0135 13.8359H53.0461C53.2701 13.8359 53.5054 13.7577 53.7518 13.6011C53.9982 13.4446 54.1887 13.2545 54.3231 13.0309L56.1714 9.81075C56.261 9.65421 56.3058 9.52004 56.3058 9.40823C56.3058 9.13988 56.149 9.00571 55.8353 9.00571H51.8027C51.3994 9.00571 51.1978 8.91067 51.1978 8.72059C51.1978 8.64233 51.2314 8.56965 51.2986 8.50256C51.377 8.43548 51.4666 8.37957 51.5675 8.33485C51.6795 8.29012 51.7971 8.25658 51.9203 8.23422C52.0547 8.21185 52.1723 8.20067 52.2732 8.20067H56.3058C56.5298 8.20067 56.765 8.12241 57.0115 7.96587C57.2579 7.80934 57.4484 7.61926 57.5828 7.39564L58.5069 5.78556C58.5853 5.64021 58.6245 5.50604 58.6245 5.38305C58.6245 5.1147 58.4733 4.98053 58.1709 4.98053H54.1382C53.8806 4.98053 53.6342 5.0588 53.3989 5.21533C53.1637 5.37187 52.9845 5.56194 52.8613 5.78556L52.3908 6.5906C52.2564 6.81422 52.0659 7.0043 51.8195 7.16083C51.5731 7.31737 51.3434 7.39564 51.1306 7.39564C50.8169 7.39564 50.6601 7.26146 50.6601 6.99312V6.89249C50.6713 6.85895 50.6825 6.81981 50.6937 6.77509L51.265 5.78556C51.3434 5.64021 51.3826 5.50604 51.3826 5.38305C51.3826 5.1147 51.2314 4.98053 50.929 4.98053H46.8963C46.6723 4.98053 46.4315 5.0588 46.1738 5.21533ZM73.4991 6.5906C73.5775 6.44525 73.6167 6.31107 73.6167 6.18808C73.6167 5.91974 73.4599 5.78556 73.1463 5.78556C72.9222 5.78556 72.687 5.86383 72.4406 6.02037C72.1941 6.1769 72.0093 6.36698 71.8861 6.5906L68.1559 13.0309C68.0215 13.2545 67.8311 13.4446 67.5846 13.6011C67.3382 13.7577 67.103 13.8359 66.8789 13.8359H62.8463C62.5327 13.8359 62.3758 13.7018 62.3758 13.4334C62.3758 13.3216 62.4206 13.1874 62.5103 13.0309L66.2236 6.5906C66.3132 6.43407 66.358 6.29989 66.358 6.18808C66.358 5.91974 66.2012 5.78556 65.8876 5.78556C65.6635 5.78556 65.4283 5.86383 65.1819 6.02037C64.9354 6.1769 64.745 6.36698 64.6106 6.5906L60.8972 13.0309C60.7628 13.2545 60.5724 13.4446 60.3259 13.6011C60.0795 13.7577 59.8443 13.8359 59.6202 13.8359H55.5876C55.274 13.8359 55.1171 13.7018 55.1171 13.4334C55.1171 13.3216 55.1619 13.1874 55.2516 13.0309L59.4354 5.78556C59.5698 5.56194 59.7602 5.37187 60.0067 5.21533C60.2531 5.0588 60.4884 4.98053 60.7124 4.98053H79.2624C79.5761 4.98053 79.7329 5.1147 79.7329 5.38305C79.7329 5.49486 79.6881 5.62903 79.5985 5.78556L74.6875 13.5284C74.531 13.7992 74.4434 13.7984 74.2874 13.797L74.2871 13.797H74.2871C74.2757 13.7969 74.2639 13.7968 74.2517 13.7968H73.9146L69.9828 13.8359C69.9156 13.7241 69.882 13.5676 69.882 13.3663C69.882 13.0868 69.9492 12.8352 70.0836 12.6116L73.4991 6.5906ZM93.4934 5.38305C93.4934 5.1147 93.3366 4.98053 93.0229 4.98053H81.7316C81.5076 4.98053 81.2724 5.0588 81.0259 5.21533C80.7795 5.37187 80.5946 5.56194 80.4714 5.78556L75.7347 13.8359C75.6002 14.0596 75.533 14.3111 75.533 14.5907C75.533 14.7919 75.5722 14.9484 75.6506 15.0603L77.8686 18.8339C77.9358 18.9457 78.0198 19.0016 78.1206 19.0016C78.311 19.0016 78.4903 18.8562 78.6583 18.5655L80.9923 14.641C81.1155 14.4173 81.3004 14.2273 81.5468 14.0707C81.8044 13.9142 82.0397 13.8359 82.2525 13.8359H87.8982C88.1222 13.8359 88.3574 13.7577 88.6039 13.6011C88.8503 13.4446 89.0407 13.2545 89.1752 13.0309L93.3758 5.78556C93.4542 5.64021 93.4934 5.50604 93.4934 5.38305ZM87.3773 6.18808C87.3773 6.31107 87.3381 6.44525 87.2597 6.5906L84 12.2259C83.8656 12.4495 83.6751 12.6396 83.4287 12.7961C83.1822 12.9526 82.947 13.0309 82.723 13.0309C82.4093 13.0309 82.2525 12.8967 82.2525 12.6284C82.2525 12.5166 82.2973 12.3824 82.3869 12.2259L85.6466 6.5906C85.7698 6.36698 85.9547 6.1769 86.2011 6.02037C86.4587 5.86383 86.6996 5.78556 86.9236 5.78556C87.2261 5.78556 87.3773 5.91974 87.3773 6.18808ZM107.309 5.38305C107.309 5.1147 107.153 4.98053 106.839 4.98053H95.5476C95.3348 4.98053 95.0995 5.0588 94.8419 5.21533C94.5954 5.37187 94.4106 5.56194 94.2874 5.78556L90.0868 13.0309C90.0083 13.1762 89.9691 13.3104 89.9691 13.4334C89.9691 13.7018 90.126 13.8359 90.4396 13.8359H101.731C101.944 13.8359 102.173 13.7577 102.42 13.6011C102.666 13.4446 102.857 13.2545 102.991 13.0309L107.192 5.78556C107.27 5.64021 107.309 5.50604 107.309 5.38305ZM101.193 6.18808C101.193 6.31107 101.154 6.44525 101.076 6.5906L97.8159 12.2259C97.6815 12.4495 97.4911 12.6396 97.2446 12.7961C96.9982 12.9526 96.763 13.0309 96.5389 13.0309C96.2365 13.0309 96.0853 12.8967 96.0853 12.6284C96.0853 12.5054 96.1245 12.3712 96.2029 12.2259L99.4626 6.5906C99.5858 6.36698 99.7706 6.1769 100.017 6.02037C100.275 5.86383 100.516 5.78556 100.74 5.78556C101.042 5.78556 101.193 5.91974 101.193 6.18808Z" fill="white"/>
<rect x="129" y="3.49219" width="23" height="12" rx="6" fill="#272727"/>
<path d="M147.546 8.611C147.51 8.611 147.478 8.599 147.45 8.575C147.426 8.547 147.414 8.515 147.414 8.479V8.437C147.414 8.369 147.392 8.313 147.348 8.269C147.304 8.221 147.248 8.197 147.18 8.197H146.004C145.94 8.197 145.884 8.221 145.836 8.269C145.792 8.313 145.77 8.369 145.77 8.437V8.785C145.77 8.853 145.792 8.911 145.836 8.959C145.884 9.003 145.94 9.025 146.004 9.025H147.18C147.324 9.025 147.46 9.053 147.588 9.109C147.716 9.165 147.828 9.241 147.924 9.337C148.02 9.433 148.096 9.545 148.152 9.673C148.208 9.801 148.236 9.937 148.236 10.081V10.429C148.236 10.577 148.208 10.715 148.152 10.843C148.096 10.971 148.02 11.083 147.924 11.179C147.828 11.275 147.716 11.351 147.588 11.407C147.46 11.463 147.324 11.491 147.18 11.491H146.004C145.86 11.491 145.724 11.463 145.596 11.407C145.468 11.351 145.356 11.275 145.26 11.179C145.164 11.083 145.088 10.971 145.032 10.843C144.976 10.715 144.948 10.577 144.948 10.429V10.387C144.948 10.351 144.96 10.321 144.984 10.297C145.012 10.269 145.044 10.255 145.08 10.255H145.638C145.674 10.255 145.704 10.269 145.728 10.297C145.756 10.321 145.77 10.351 145.77 10.387V10.429C145.77 10.497 145.792 10.555 145.836 10.603C145.884 10.647 145.94 10.669 146.004 10.669H147.18C147.248 10.669 147.304 10.647 147.348 10.603C147.392 10.555 147.414 10.497 147.414 10.429V10.081C147.414 10.013 147.392 9.957 147.348 9.913C147.304 9.869 147.248 9.847 147.18 9.847H146.004C145.86 9.847 145.724 9.819 145.596 9.763C145.468 9.707 145.356 9.631 145.26 9.535C145.164 9.439 145.088 9.327 145.032 9.199C144.976 9.067 144.948 8.929 144.948 8.785V8.437C144.948 8.289 144.976 8.151 145.032 8.023C145.088 7.895 145.164 7.783 145.26 7.687C145.356 7.591 145.468 7.515 145.596 7.459C145.724 7.403 145.86 7.375 146.004 7.375H147.18C147.324 7.375 147.46 7.403 147.588 7.459C147.716 7.515 147.828 7.591 147.924 7.687C148.02 7.783 148.096 7.895 148.152 8.023C148.208 8.151 148.236 8.289 148.236 8.437V8.479C148.236 8.515 148.224 8.547 148.2 8.575C148.176 8.599 148.146 8.611 148.11 8.611H147.546Z" fill="white"/>
<path d="M143.35 7.507C143.35 7.471 143.362 7.441 143.386 7.417C143.414 7.389 143.446 7.375 143.482 7.375H144.046C144.082 7.375 144.112 7.389 144.136 7.417C144.164 7.441 144.178 7.471 144.178 7.507V11.359C144.178 11.395 144.164 11.427 144.136 11.455C144.112 11.479 144.082 11.491 144.046 11.491H143.482C143.446 11.491 143.414 11.479 143.386 11.455C143.362 11.427 143.35 11.395 143.35 11.359V9.955L141.706 8.479V11.359C141.706 11.395 141.692 11.427 141.664 11.455C141.64 11.479 141.61 11.491 141.574 11.491H141.016C140.98 11.491 140.948 11.479 140.92 11.455C140.896 11.427 140.884 11.395 140.884 11.359V7.507C140.884 7.471 140.896 7.441 140.92 7.417C140.948 7.389 140.98 7.375 141.016 7.375H141.574C141.61 7.375 141.65 7.385 141.694 7.405C141.738 7.421 141.774 7.441 141.802 7.465L143.35 8.851V7.507Z" fill="white"/>
<path d="M139.028 7.375C139.064 7.375 139.098 7.387 139.13 7.411C139.166 7.435 139.19 7.463 139.202 7.495L140.066 9.643C140.078 9.675 140.088 9.717 140.096 9.769C140.108 9.817 140.114 9.859 140.114 9.895V11.359C140.114 11.395 140.1 11.427 140.072 11.455C140.048 11.479 140.018 11.491 139.982 11.491H139.418C139.382 11.491 139.35 11.479 139.322 11.455C139.298 11.427 139.286 11.395 139.286 11.359V10.669H137.642V11.359C137.642 11.395 137.628 11.427 137.6 11.455C137.576 11.479 137.546 11.491 137.51 11.491H136.952C136.916 11.491 136.884 11.479 136.856 11.455C136.832 11.427 136.82 11.395 136.82 11.359V9.895C136.82 9.859 136.824 9.817 136.832 9.769C136.844 9.717 136.856 9.675 136.868 9.643L137.726 7.495C137.742 7.463 137.766 7.435 137.798 7.411C137.834 7.387 137.87 7.375 137.906 7.375H139.028ZM137.672 9.847H139.256L138.596 8.197H138.332L137.672 9.847Z" fill="white"/>
<path d="M136.051 8.071C136.051 8.107 136.037 8.137 136.009 8.161C135.985 8.185 135.955 8.197 135.919 8.197H133.675V9.025H135.715C135.751 9.025 135.781 9.037 135.805 9.061C135.833 9.085 135.847 9.115 135.847 9.151V9.715C135.847 9.751 135.833 9.783 135.805 9.811C135.781 9.835 135.751 9.847 135.715 9.847H133.675V11.359C133.675 11.395 133.661 11.427 133.633 11.455C133.609 11.479 133.579 11.491 133.543 11.491H132.979C132.943 11.491 132.911 11.479 132.883 11.455C132.859 11.427 132.847 11.395 132.847 11.359V7.507C132.847 7.471 132.859 7.441 132.883 7.417C132.911 7.389 132.943 7.375 132.979 7.375H135.919C135.955 7.375 135.985 7.389 136.009 7.417C136.037 7.441 136.051 7.471 136.051 7.507V8.071Z" fill="white"/>
</svg>
