<svg width="32" height="32" viewBox="0 0 32 32" fill="none" xmlns="http://www.w3.org/2000/svg">
<path fill-rule="evenodd" clip-rule="evenodd" d="M23.2095 9.14844H29.9859C30.1484 9.14844 30.2143 9.35773 30.081 9.45077L21.4056 15.5081C21.2723 15.6011 21.3381 15.8104 21.5007 15.8104H27.407C27.5693 15.8104 27.6353 16.0192 27.5025 16.1124L20.5237 21.0142C19.0621 22.0407 17.3597 22.6597 15.5909 22.8159C15.4984 22.8381 15.4078 22.85 15.3191 22.85H15.023C14.9153 22.8535 14.8074 22.8552 14.6993 22.8552H14.5041C14.4896 22.8552 14.4756 22.8534 14.4624 22.85H2.57202C2.08911 22.85 1.84766 22.601 1.84766 22.187C1.84766 21.9973 1.90802 21.7904 2.02875 21.5661L3.94314 18.2473C4.13286 17.9024 4.40018 17.6092 4.74512 17.3677C5.1073 17.1263 5.48673 17.0055 5.88341 17.0055H12.0923C12.5752 17.0055 12.8166 17.2125 12.8166 17.6264C12.8166 17.8161 12.7563 18.0231 12.6355 18.2473L11.4455 20.3244C11.3248 20.5486 11.2644 20.7555 11.2644 20.9453C11.2644 21.3592 11.4973 21.5661 11.9629 21.5661C12.3079 21.5661 12.67 21.4454 13.0495 21.204C13.4289 20.9625 13.7221 20.6693 13.9291 20.3244L15.9249 16.7506C16.0628 16.5091 16.1318 16.3022 16.1318 16.1297C16.1318 16.0289 16.1049 16.0185 15.9799 15.9699C15.9634 15.9635 15.9451 15.9564 15.9249 15.9483C15.2619 15.9321 14.7164 15.9189 14.2662 15.908C12.3156 15.8608 12.1551 15.8569 11.9869 15.8429C11.8363 15.8429 11.7328 15.8276 11.5604 15.7931C11.3879 15.7413 11.1647 15.5257 11.1647 15.3533C11.1647 15.0946 11.2669 14.8634 11.5429 14.7771C11.8361 14.6909 12.2082 14.6634 15.9507 14.5772C16.0523 14.5551 16.1579 14.5451 16.2664 14.5347C16.582 14.5048 16.9224 14.4724 17.2594 14.1351C17.5619 13.8324 17.9821 13.2877 18.2235 12.8737L18.9479 11.632C19.0686 11.4078 19.129 11.2008 19.129 11.0111C19.129 10.5972 18.8961 10.3902 18.4305 10.3902C17.9993 10.3902 17.6285 10.5196 17.3181 10.7783C17.2185 10.8661 17.0544 10.9977 16.8702 11.1455C16.5118 11.4329 16.0775 11.7813 15.8952 11.9863C15.6192 12.2968 15.326 12.5813 15.0156 12.84C14.7224 13.0987 14.3602 13.2281 13.9291 13.2281H7.7202C7.25453 13.2281 7.0217 13.0211 7.0217 12.6072C7.0217 12.4175 7.08207 12.2105 7.20279 11.9863L7.92716 10.7445C8.11687 10.3996 8.96197 9.75208 9.32415 9.51062C9.68634 9.26917 10.0658 9.14844 10.4624 9.14844H21.422H23.2095Z" fill="white"/>
</svg>
