<svg width="24" height="24" viewBox="0 0 24 24" fill="none" xmlns="http://www.w3.org/2000/svg">
<g clip-path="url(#clip0_4930_9449)">
<g clip-path="url(#clip1_4930_9449)">
<path d="M10.4892 6.12891L7.24876 0.728437C7.11552 0.506278 6.92701 0.322415 6.7016 0.194758C6.47619 0.0671012 6.22156 3.18059e-06 5.96251 0H0.752349C0.145318 0 -0.209995 0.682969 0.137818 1.18031L5.3536 8.63156C6.74672 7.32984 8.5186 6.43641 10.4892 6.12891ZM23.2495 0H18.0394C17.5125 0 17.0241 0.276562 16.7531 0.728437L13.5127 6.12891C15.4833 6.43641 17.2552 7.32984 18.6483 8.63109L23.8641 1.18031C24.2119 0.682969 23.8566 0 23.2495 0ZM12.0009 7.5C7.44469 7.5 3.75094 11.1938 3.75094 15.75C3.75094 20.3062 7.44469 24 12.0009 24C16.5572 24 20.2509 20.3062 20.2509 15.75C20.2509 11.1938 16.5572 7.5 12.0009 7.5ZM16.3378 14.8716L14.5598 16.6041L14.9803 19.0519C15.0553 19.4906 14.5931 19.8258 14.1998 19.6186L12.0009 18.4631L9.80251 19.6186C9.40876 19.8272 8.94704 19.4902 9.02204 19.0519L9.44251 16.6041L7.66454 14.8716C7.34485 14.5603 7.52157 14.017 7.96219 13.9533L10.4198 13.5952L11.5181 11.3677C11.617 11.167 11.8083 11.0681 12 11.0681C12.1927 11.0681 12.3853 11.1684 12.4842 11.3677L13.5825 13.5952L16.0402 13.9533C16.4808 14.017 16.6575 14.5603 16.3378 14.8716Z" fill="white"/>
</g>
</g>
<defs>
<clipPath id="clip0_4930_9449">
<rect width="24" height="24" fill="white"/>
</clipPath>
<clipPath id="clip1_4930_9449">
<rect width="24" height="24" fill="white"/>
</clipPath>
</defs>
</svg>
