<svg width="24" height="24" viewBox="0 0 24 24" fill="none" xmlns="http://www.w3.org/2000/svg">
<g clip-path="url(#clip0_4930_9459)">
<path d="M12.247 24.041C18.665 24.041 24 18.7176 24 12.2881C24 5.87007 18.6535 0.535156 12.2355 0.535156C5.80595 0.535156 0.494141 5.87007 0.494141 12.2881C0.494141 18.7176 5.8175 24.041 12.247 24.041ZM12.247 5.65115C14.4478 5.65115 16.1992 7.58692 16.1992 9.91447C16.1992 12.3918 14.4593 14.2815 12.247 14.2584C10.0232 14.2354 8.29485 12.3918 8.29485 9.91447C8.27179 7.58692 10.0347 5.65115 12.247 5.65115ZM19.2527 19.1094L19.2872 19.2592C17.5128 21.1488 14.8857 22.232 12.247 22.232C9.59687 22.232 6.96972 21.1488 5.1953 19.2592L5.22986 19.1094C6.23229 17.7267 8.69813 16.2172 12.247 16.2172C15.7844 16.2172 18.2618 17.7267 19.2527 19.1094Z" fill="white"/>
</g>
<defs>
<clipPath id="clip0_4930_9459">
<rect width="24" height="24" fill="white"/>
</clipPath>
</defs>
</svg>
