<svg width="24" height="24" viewBox="0 0 24 24" fill="none" xmlns="http://www.w3.org/2000/svg">
<g clip-path="url(#clip0_4930_9466)">
<path d="M3.83086 12H2.68086V21.6C2.68086 22.2365 2.92318 22.847 3.35451 23.2971C3.78585 23.7471 4.37086 24 4.98086 24H10.7309V12H3.83086ZM18.7809 12H13.0309V24H18.7809C19.3909 24 19.9759 23.7471 20.4072 23.2971C20.8385 22.847 21.0809 22.2365 21.0809 21.6V12H18.7809ZM19.6905 6C19.8592 5.41654 19.9403 4.80935 19.9309 4.2C19.9309 1.884 18.1254 0 15.9059 0C14.0406 0 12.7951 1.7784 11.9913 3.702C11.1989 1.884 9.89021 0 7.85586 0C5.63636 0 3.83086 1.884 3.83086 4.2C3.83086 4.9152 3.92171 5.5068 4.07121 6H0.380859V10.8H10.7309V8.4H13.0309V10.8H23.3809V6H19.6905ZM6.13086 4.2C6.13086 3.2076 6.90481 2.4 7.85586 2.4C8.87706 2.4 9.82696 4.23 10.3836 6H7.28086C6.85076 6 6.13086 6 6.13086 4.2ZM15.9059 2.4C16.8569 2.4 17.6309 3.2076 17.6309 4.2C17.6309 6 16.911 6 16.4809 6H13.6323C14.2188 4.1088 15.071 2.4 15.9059 2.4Z" fill="white"/>
</g>
<defs>
<clipPath id="clip0_4930_9466">
<rect width="24" height="24" fill="white"/>
</clipPath>
</defs>
</svg>
